<mxfile host="app.diagrams.net" agent="Mozilla/5.0 (Windows NT 10.0; Win64; x64) AppleWebKit/537.36 (KHTML, like Gecko) Chrome/135.0.0.0 Safari/537.36" version="26.2.13">
  <diagram name="Page-1" id="uiqtQKaPTOD8ebPIvMud">
    <mxGraphModel dx="1428" dy="751" grid="1" gridSize="10" guides="1" tooltips="1" connect="1" arrows="1" fold="1" page="1" pageScale="1" pageWidth="850" pageHeight="1100" math="0" shadow="0">
      <root>
        <mxCell id="0" />
        <mxCell id="1" parent="0" />
        <mxCell id="K2zvY_sbPHcRYx3P0A0R-1" value="masuk web" style="rounded=1;whiteSpace=wrap;html=1;" vertex="1" parent="1">
          <mxGeometry x="120" y="120" width="120" height="60" as="geometry" />
        </mxCell>
        <mxCell id="K2zvY_sbPHcRYx3P0A0R-3" value="klik pengaduan" style="rounded=1;whiteSpace=wrap;html=1;" vertex="1" parent="1">
          <mxGeometry x="320" y="120" width="120" height="60" as="geometry" />
        </mxCell>
        <mxCell id="K2zvY_sbPHcRYx3P0A0R-4" value="baca persyaratan pengaduan" style="rounded=1;whiteSpace=wrap;html=1;" vertex="1" parent="1">
          <mxGeometry x="510" y="120" width="120" height="60" as="geometry" />
        </mxCell>
        <mxCell id="K2zvY_sbPHcRYx3P0A0R-5" value="ajukan pengaduan" style="rounded=1;whiteSpace=wrap;html=1;" vertex="1" parent="1">
          <mxGeometry x="690" y="120" width="120" height="60" as="geometry" />
        </mxCell>
        <mxCell id="K2zvY_sbPHcRYx3P0A0R-6" value="isi nama dan identitas lain" style="rounded=1;whiteSpace=wrap;html=1;" vertex="1" parent="1">
          <mxGeometry x="690" y="230" width="120" height="60" as="geometry" />
        </mxCell>
        <mxCell id="K2zvY_sbPHcRYx3P0A0R-7" value="klik kirim" style="rounded=1;whiteSpace=wrap;html=1;" vertex="1" parent="1">
          <mxGeometry x="510" y="230" width="120" height="60" as="geometry" />
        </mxCell>
        <mxCell id="K2zvY_sbPHcRYx3P0A0R-8" value="selesai" style="rounded=1;whiteSpace=wrap;html=1;" vertex="1" parent="1">
          <mxGeometry x="320" y="230" width="120" height="60" as="geometry" />
        </mxCell>
        <mxCell id="K2zvY_sbPHcRYx3P0A0R-10" value="" style="endArrow=classic;html=1;rounded=0;entryX=0;entryY=0.5;entryDx=0;entryDy=0;exitX=1;exitY=0.5;exitDx=0;exitDy=0;" edge="1" parent="1" source="K2zvY_sbPHcRYx3P0A0R-1" target="K2zvY_sbPHcRYx3P0A0R-3">
          <mxGeometry width="50" height="50" relative="1" as="geometry">
            <mxPoint x="260" y="160" as="sourcePoint" />
            <mxPoint x="320" y="50" as="targetPoint" />
          </mxGeometry>
        </mxCell>
        <mxCell id="K2zvY_sbPHcRYx3P0A0R-11" value="" style="endArrow=classic;html=1;rounded=0;exitX=1;exitY=0.5;exitDx=0;exitDy=0;" edge="1" parent="1">
          <mxGeometry width="50" height="50" relative="1" as="geometry">
            <mxPoint x="440" y="149.5" as="sourcePoint" />
            <mxPoint x="510" y="150" as="targetPoint" />
          </mxGeometry>
        </mxCell>
        <mxCell id="K2zvY_sbPHcRYx3P0A0R-12" value="" style="endArrow=classic;html=1;rounded=0;exitX=1;exitY=0.5;exitDx=0;exitDy=0;entryX=0;entryY=0.5;entryDx=0;entryDy=0;" edge="1" parent="1" target="K2zvY_sbPHcRYx3P0A0R-5">
          <mxGeometry width="50" height="50" relative="1" as="geometry">
            <mxPoint x="630" y="149.5" as="sourcePoint" />
            <mxPoint x="700" y="150" as="targetPoint" />
          </mxGeometry>
        </mxCell>
        <mxCell id="K2zvY_sbPHcRYx3P0A0R-16" value="" style="endArrow=classic;html=1;rounded=0;entryX=0.5;entryY=0;entryDx=0;entryDy=0;" edge="1" parent="1" source="K2zvY_sbPHcRYx3P0A0R-5" target="K2zvY_sbPHcRYx3P0A0R-6">
          <mxGeometry width="50" height="50" relative="1" as="geometry">
            <mxPoint x="750" y="230" as="sourcePoint" />
            <mxPoint x="750" y="250.71067811865476" as="targetPoint" />
          </mxGeometry>
        </mxCell>
        <mxCell id="K2zvY_sbPHcRYx3P0A0R-17" value="" style="endArrow=classic;html=1;rounded=0;entryX=1;entryY=0.5;entryDx=0;entryDy=0;exitX=0;exitY=0.5;exitDx=0;exitDy=0;" edge="1" parent="1" source="K2zvY_sbPHcRYx3P0A0R-6" target="K2zvY_sbPHcRYx3P0A0R-7">
          <mxGeometry width="50" height="50" relative="1" as="geometry">
            <mxPoint x="630" y="310" as="sourcePoint" />
            <mxPoint x="700.7106781186548" y="260" as="targetPoint" />
          </mxGeometry>
        </mxCell>
        <mxCell id="K2zvY_sbPHcRYx3P0A0R-18" value="" style="endArrow=classic;html=1;rounded=0;exitX=0;exitY=0.5;exitDx=0;exitDy=0;" edge="1" parent="1" target="K2zvY_sbPHcRYx3P0A0R-8">
          <mxGeometry width="50" height="50" relative="1" as="geometry">
            <mxPoint x="510" y="259.5" as="sourcePoint" />
            <mxPoint x="450" y="259.5" as="targetPoint" />
          </mxGeometry>
        </mxCell>
      </root>
    </mxGraphModel>
  </diagram>
</mxfile>
